<svg><svg xmlns="http://www.w3.org/2000/svg" transform="matrix(1,0,0,1,0,1.4936275482177734)" opacity="1" style="&#10;    /* width: auto; */&#10;    /* height: auto; */&#10;    width: 66px;&#10;    height: 66px;&#10;"><rect fill="#333" fill-opacity="0" stroke-width="2" x="0" y="0" width="60" height="55.42895119403781" class="image-rect"/> <svg x="0" y="0" width="60" height="55.42895119403781" filtersec="colorsb1852357382" class="image-svg-svg primary"><svg xmlns="http://www.w3.org/2000/svg" viewBox="0 0 206.91 191.13"><path d="M187.65 40.71c-6.31.6-12.64 1.1-18.94 1.82-9 1-18 2.13-26.93 3.4-10.67 1.5-21.3 3.22-31.88 5.26a419.83 419.83 0 0 0-46.78 11.59 259 259 0 0 0-42.79 17.37c-.66.35-1.33.7-2 1-.4.19-.82.59-1.25.3s-.29-1-.2-1.45a109 109 0 0 1 3.85-15.19A94.35 94.35 0 0 1 53.11 19.7 93.29 93.29 0 0 1 92.2 2a95.31 95.31 0 0 1 48.55 2.6 93.2 93.2 0 0 1 41.82 27.26 95.5 95.5 0 0 1 19.48 33.68 93.68 93.68 0 0 1 4.46 38.46 95.88 95.88 0 0 1-18.23 48.06 3.65 3.65 0 0 1-4.32 1.71c-16.69-3.62-32.74-9-47.68-17.4-9.34-5.24-18-11.43-24.11-20.44-8.34-12.27-7.28-25.76 2.62-36.86 8.11-9.1 18.09-15.63 28.78-21.16a195.47 195.47 0 0 1 43.59-16.41 2.11 2.11 0 0 0 .53-.35z" fill="#8ac655"/><path d="M155.31 180.24a95.12 95.12 0 0 1-23.94 8.76A94.6 94.6 0 0 1 83 186.85Q40.57 173 22.88 132c-1.21-2.8-1.61-3-4.5-1.85-3.52 1.37-4.91 4.21-5.32 7.67a27.76 27.76 0 0 0 .95 9.55c.13.57.51 1.27.05 1.71s-1.09-.18-1.57-.43a34 34 0 0 1-7.7-5.39c-5.24-5.1-6.22-11.37-2.75-17.77 3.63-6.69 9.21-11.55 15.13-16.06C28.53 100.72 41.06 94 53.84 87.74c15.31-7.53 31-14.13 47-20.27 11.78-4.54 23.63-8.91 35.62-12.89.83-.27 1.68-.48 2.82-.81-5.22 2.9-10.21 5.6-15.12 8.44-10.4 6-20.19 12.89-28.67 21.46a58.4 58.4 0 0 0-11.39 15.5c-5.66 11.61-4.86 22.86 1.77 33.77 5.63 9.26 13.61 16.25 22.35 22.42 13.89 9.81 29.15 17 44.81 23.53a4.74 4.74 0 0 1 2.28 1.35z" fill="#157abe"/></svg></svg> 
</svg>


<svg xmlns="http://www.w3.org/2000/svg" transform="translate(67.0008659362793,0)" style="&#10;    width: 125px;&#10;    position: absolute;&#10;    left: 0;&#10;    height: 66px;&#10;"><g data-gra="path-name" fill-rule="" class="tp-name iconsvg-namesvg" transform="matrix(1,0,0,1,0,0)" opacity="1"><g><path d="M5.88-20.30L3.63-24.04Q6.27-25.63 8.47-27.45Q10.67-29.26 12.21-30.80Q13.75-32.34 14.63-33.36Q15.51-34.38 15.51-34.38L15.51-34.38L18.92-31.68Q18.81-31.57 17.88-30.44Q16.94-29.32 15.23-27.66Q13.53-26.02 11.17-24.06Q8.80-22.11 5.88-20.30L5.88-20.30ZM14.13-15.51L14.13 8.03L9.79 8.03L9.79-11.88Q7.92-10.45 5.61-8.96L5.61-8.96L3.35-12.65Q6.16-14.36 8.44-16.25Q10.72-18.15 12.38-19.77Q14.03-21.39 14.93-22.47Q15.84-23.54 15.84-23.54L15.84-23.54L19.20-20.84Q19.09-20.73 17.77-19.20Q16.45-17.66 14.13-15.51L14.13-15.51ZM51.81 3.63L51.81 7.97L33.94 7.97Q32.29 7.97 30.80 7.40Q29.32 6.82 28.02 5.94Q26.73 5.06 25.68 4.04Q24.64 3.02 23.93 2.15L23.93 2.15Q22.99 3.74 21.78 5.33Q20.57 6.93 19.03 8.36L19.03 8.36L16.11 5.22Q18.54 2.97 20.05 0.25Q21.56-2.48 22.41-4.81Q23.27-7.15 23.59-8.74Q23.93-10.34 23.93-10.39L23.93-10.39L28.21-9.85Q28.16-9.63 27.75-7.48Q27.34-5.33 26.07-2.20L26.07-2.20Q26.51-1.54 27.31-0.55Q28.11 0.44 29.18 1.38Q30.25 2.31 31.46 2.97Q32.67 3.63 33.94 3.63L33.94 3.63L35.64 3.63L35.64-14.57L39.98-14.57L39.98-7.97L49.39-7.97L49.39-3.85L39.98-3.85L39.98 3.63L51.81 3.63ZM19.96-20.13L33.33-20.13L33.33-25.96L22.50-25.96L22.50-30.25L33.33-30.25L33.33-34.43L37.67-34.43L37.67-30.25L48.51-30.25L48.51-25.96L37.67-25.96L37.67-20.13L51.04-20.13L51.04-15.84L19.96-15.84L19.96-20.13ZM78.05-25.30L78.05-29.64L89.65-29.64L88-33.11L91.91-34.98L94.38-29.64L105.77-29.64L105.77-25.30L78.05-25.30ZM103.13-10.23L100.87-14.24Q99.94-12.76 98.53-10.75Q97.13-8.74 95.15-6.33L95.15-6.33L105.60 4.84L102.47 7.75L92.29-3.08Q89.81-0.49 86.73 2.20Q83.66 4.90 79.86 7.59L79.86 7.59L77.50 4.24L77.77 7.09L73.42 7.48L70.78-21.56L75.08-21.95L77.50 4.01Q81.13 1.43 84.07-1.18Q87.01-3.79 89.32-6.27L89.32-6.27L82.56-13.47Q81.51-11.71 80.82-10.56Q80.14-9.40 80.03-9.29L80.03-9.29L76.39-11.66Q76.39-11.66 77.16-12.90Q77.94-14.13 79.01-16.03Q80.08-17.93 81.29-20.27Q82.50-22.61 83.38-24.80L83.38-24.80L87.40-23.16Q86.79-21.73 86.13-20.30Q85.47-18.86 84.75-17.49L84.75-17.49L92.18-9.57Q94.88-12.81 96.39-15.23Q97.90-17.66 98.45-18.70L98.45-18.70L96.03-23.10L99.83-25.19L106.92-12.32L103.13-10.23ZM69.96 7.87L65.67 7.87L65.67-24.80L65.12-24.80Q65.01-22.39 64.76-18.40Q64.52-14.41 64.16-9.82Q63.80-5.22 63.28-0.60Q62.76 4.01 62.04 7.70L62.04 7.70L57.75 6.88Q58.19 4.57 58.58 1.76Q58.96-1.04 59.29-4.04Q59.62-7.04 59.84-10.04Q60.06-13.04 60.25-15.79Q60.45-18.54 60.58-20.87Q60.72-23.21 60.77-24.80L60.77-24.80L58.74-24.80L58.74-29.15L65.67-29.15L65.67-34.21L69.96-34.21L69.96-29.15L76.89-29.15L76.89-24.80L69.96-24.80L69.96 7.87Z" transform="translate(-3.355, 34.98)"/></g> <!----> <!----> <!----> <!----> <!----> <!----> <g data-gra="path-name-1" fill="#333" transform="translate(106.56999969482422,0)"><path d="" transform="translate(0, 34.98)"/></g></g> <g data-gra="path-slogan" fill-rule="" class="tp-slogan iconsvg-slogansvg" fill="#333" transform="matrix(1,0,0,1,0,50.34000015258789)" opacity="1"><rect x="0" height="1" y="3.5399999618530273" width="17.07499885559082"/> <rect height="1" y="3.5399999618530273" width="17.07499885559082" x="86.4950008392334"/> <g transform="translate(20.07499885559082,0)"><path d="M0.19-5.84L1.21-5.84L1.21-8.00L2.82-8.00L2.82-5.84L4.31-5.84L4.31-4.60L2.82-4.60L2.82-2.47Q2.82-1.73 2.95-1.54L2.95-1.54Q3.16-1.25 3.67-1.25L3.67-1.25L4.31-1.25L4.31 0L3.14 0Q2.10 0 1.66-0.50Q1.21-1.01 1.21-2.20L1.21-2.20L1.21-4.60L0.19-4.60L0.19-5.84ZM8.10-5.93L8.10-5.93Q9.72-5.93 10.49-4.99L10.49-4.99Q11.20-4.14 11.20-2.84L11.20-2.84Q11.20-1.48 10.31-0.66L10.31-0.66Q9.49 0.08 8.08 0.08L8.08 0.08Q6.61 0.08 5.78-0.76L5.78-0.76Q5.02-1.51 5.02-2.96L5.02-2.96Q5.02-4.19 5.75-5.00L5.75-5.00Q6.56-5.92 8.10-5.93ZM8.11-4.70L8.11-4.70Q6.66-4.70 6.66-2.90L6.66-2.90Q6.66-2.17 6.90-1.79L6.90-1.79Q7.30-1.14 8.12-1.14L8.12-1.14Q9.55-1.14 9.55-2.93L9.55-2.93Q9.55-4.68 8.11-4.70ZM14.03-5.84L17.46-5.84L17.46-4.60L14.62-4.60Q14.12-4.60 13.99-4.55L13.99-4.55Q13.72-4.45 13.72-4.08L13.72-4.08Q13.72-3.77 13.98-3.60L13.98-3.60Q14.12-3.50 14.76-3.50L14.76-3.50L15.71-3.50Q16.62-3.50 17.15-3.12L17.15-3.12Q17.74-2.69 17.74-1.85L17.74-1.85Q17.74-1.21 17.38-0.68L17.38-0.68Q17.11-0.26 16.73-0.13Q16.36 0 15.47 0L15.47 0L12.14 0L12.14-1.25L15.01-1.25Q15.54-1.25 15.73-1.26L15.73-1.26Q16.16-1.31 16.16-1.75L16.16-1.75Q16.16-2.11 15.88-2.24L15.88-2.24Q15.73-2.32 15.18-2.32L15.18-2.32L14.21-2.32Q13.63-2.32 13.33-2.39Q13.02-2.46 12.76-2.65L12.76-2.65Q12.43-2.88 12.25-3.28Q12.06-3.68 12.06-4.14L12.06-4.14Q12.06-5.02 12.70-5.53L12.70-5.53Q13.08-5.84 14.03-5.84L14.03-5.84ZM21.65-5.84L23.84-5.84L23.84-4.60L21.92-4.60Q20.95-4.60 20.58-4.16L20.58-4.16Q20.22-3.76 20.22-2.92L20.22-2.92Q20.22-1.98 20.81-1.55L20.81-1.55Q21.05-1.38 21.33-1.31Q21.61-1.25 22.12-1.25L22.12-1.25L23.84-1.25L23.84 0L21.65 0Q20.76 0 20.24-0.18Q19.73-0.36 19.33-0.80L19.33-0.80Q18.58-1.64 18.58-2.94L18.58-2.94Q18.58-4.50 19.48-5.27L19.48-5.27Q19.84-5.58 20.34-5.71Q20.84-5.84 21.65-5.84L21.65-5.84ZM25.07-8.00L26.68-8.00L26.68-5.84L28.32-5.84Q29.05-5.84 29.47-5.73Q29.88-5.62 30.17-5.33L30.17-5.33Q30.72-4.82 30.72-3.64L30.72-3.64L30.72 0L29.11 0L29.11-3.32Q29.11-3.79 29.07-3.99Q29.03-4.19 28.90-4.33L28.90-4.33Q28.66-4.58 27.98-4.60L27.98-4.60L26.68-4.60L26.68 0L25.07 0L25.07-8.00ZM34.92-5.93L34.92-5.93Q36.54-5.93 37.31-4.99L37.31-4.99Q38.02-4.14 38.02-2.84L38.02-2.84Q38.02-1.48 37.13-0.66L37.13-0.66Q36.31 0.08 34.90 0.08L34.90 0.08Q33.43 0.08 32.60-0.76L32.60-0.76Q31.84-1.51 31.84-2.96L31.84-2.96Q31.84-4.19 32.57-5.00L32.57-5.00Q33.38-5.92 34.92-5.93ZM34.93-4.70L34.93-4.70Q33.48-4.70 33.48-2.90L33.48-2.90Q33.48-2.17 33.72-1.79L33.72-1.79Q34.12-1.14 34.94-1.14L34.94-1.14Q36.37-1.14 36.37-2.93L36.37-2.93Q36.37-4.68 34.93-4.70ZM41.90-5.93L41.90-5.93Q43.52-5.93 44.29-4.99L44.29-4.99Q45-4.14 45-2.84L45-2.84Q45-1.48 44.11-0.66L44.11-0.66Q43.30 0.08 41.88 0.08L41.88 0.08Q40.42 0.08 39.59-0.76L39.59-0.76Q38.82-1.51 38.82-2.96L38.82-2.96Q38.82-4.19 39.55-5.00L39.55-5.00Q40.37-5.92 41.90-5.93ZM41.92-4.70L41.92-4.70Q40.46-4.70 40.46-2.90L40.46-2.90Q40.46-2.17 40.70-1.79L40.70-1.79Q41.10-1.14 41.93-1.14L41.93-1.14Q43.36-1.14 43.36-2.93L43.36-2.93Q43.36-4.68 41.92-4.70ZM47.80-8.00L47.80 0L46.19 0L46.19-8.00L47.80-8.00ZM49.21-1.56L50.66-1.56L50.66 0L49.21 0L49.21-1.56ZM54.76-5.84L56.95-5.84L56.95-4.60L55.03-4.60Q54.06-4.60 53.69-4.16L53.69-4.16Q53.33-3.76 53.33-2.92L53.33-2.92Q53.33-1.98 53.92-1.55L53.92-1.55Q54.16-1.38 54.44-1.31Q54.72-1.25 55.22-1.25L55.22-1.25L56.95-1.25L56.95 0L54.76 0Q53.87 0 53.35-0.18Q52.84-0.36 52.44-0.80L52.44-0.80Q51.68-1.64 51.68-2.94L51.68-2.94Q51.68-4.50 52.58-5.27L52.58-5.27Q52.94-5.58 53.45-5.71Q53.95-5.84 54.76-5.84L54.76-5.84ZM58.18 0L58.18-5.84L61.27-5.84Q61.97-5.84 62.33-5.74Q62.70-5.64 63-5.38L63-5.38Q63.61-4.81 63.61-3.60L63.61-3.60L63.61 0L62.00 0L62.00-3.78Q62.00-4.21 61.81-4.40Q61.62-4.60 61.18-4.60L61.18-4.60L59.78-4.60L59.78 0L58.18 0Z" transform="translate(-0.192, 8.004)"/></g></g></svg>
</svg>